PathFileType	4	(X/Y/Z)	C:/Users/opensim2020/Desktop/walking_exp_matlab/subject03_walking15_straight_04.trc																																																																																																																																											
DataRate	CameraRate	NumFrames	NumMarkers	Units	OrigDataRate	OrigDataStartFrame	OrigNumFrames																																																																																																																																							
100	100	4	47	mm	100	2253	182																																																																																																																																							
Frame#	Time	LFHD			RFHD			LBHD			RBHD			C7			T10			CLAV			STRN			RBAK			LSHO			LUPA			LELB			LFRM			LWRA			LWRB			LFIN			RSHO			RUPA			RELB			RFRM			RWRA			RWRB			RFIN			LASI			RASI			LPSI			RPSI			LTHI			LKNE			LTIB			LANK			LHEE			LTOE			RTHI			RKNE			RTIB			RANK			RHEE			RTOE			*39			*40			*41			*42			*43			*44			*45			*46		
		X1	Y1	Z1	X2	Y2	Z2	X3	Y3	Z3	X4	Y4	Z4	X5	Y5	Z5	X6	Y6	Z6	X7	Y7	Z7	X8	Y8	Z8	X9	Y9	Z9	X10	Y10	Z10	X11	Y11	Z11	X12	Y12	Z12	X13	Y13	Z13	X14	Y14	Z14	X15	Y15	Z15	X16	Y16	Z16	X17	Y17	Z17	X18	Y18	Z18	X19	Y19	Z19	X20	Y20	Z20	X21	Y21	Z21	X22	Y22	Z22	X23	Y23	Z23	X24	Y24	Z24	X25	Y25	Z25	X26	Y26	Z26	X27	Y27	Z27	X28	Y28	Z28	X29	Y29	Z29	X30	Y30	Z30	X31	Y31	Z31	X32	Y32	Z32	X33	Y33	Z33	X34	Y34	Z34	X35	Y35	Z35	X36	Y36	Z36	X37	Y37	Z37	X38	Y38	Z38	X39	Y39	Z39	X40	Y40	Z40	X41	Y41	Z41	X42	Y42	Z42	X43	Y43	Z43	X44	Y44	Z44	X45	Y45	Z45	X46	Y46	Z46	X47	Y47	Z47
																																																																																																																																														
92	0.91	64.84527	1617.83411	915.70575	55.58802	1628.53687	1047.71057	-64.78708	1580.32605	913.21393	-69.03018	1589.9325	1043.18848	-101.30452	1415.73169	973.67999	-125.66563	1102.91711	978.8952	22.20938	1345.10413	985.4126	73.2962	1182.02966	982.88623	-153.90767	1237.8927	1065.32507	-14.07126	1379.66064	826.35114	13.16768	1186.78052	754.12567	46.23452	1067.55176	745.17255	104.78317	951.91071	757.31555	148.82228	844.30792	797.85913	135.70259	842.47675	743.38367	174.7677	769.99304	759.51489	-39.02583	1367.88306	1140.99695	-49.42488	1143.97717	1209.92188	-40.52067	1031.10803	1221.78003	-37.46224	894.29303	1225.29871	-13.51461	795.46844	1194.57471	-49.46261	794.47144	1234.93774	-31.98961	722.17535	1228.31641	36.66158	943.37335	864.51245	37.92329	942.00385	1100.58057	-123.93073	967.388	917.10956	-122.22305	966.61884	1065.02612	-42.32581	642.92151	829.38025	-56.81258	467.21344	868.7804	-131.88176	282.51044	870.24976	-170.34131	74.98645	914.34174	-211.06207	43.87627	953.05396	-19.10904	29.17543	931.30444	61.97588	652.27637	1146.51917	138.91191	490.09906	1117.62024	72.05326	307.54373	1120.32202	4.19352	102.59438	1075.74719	-45.8054	80.0564	1022.74194	128.39307	37.70107	1058.69739	NaN	NaN	NaN	NaN	NaN	NaN	NaN	NaN	NaN	NaN	NaN	NaN	NaN	NaN	NaN	NaN	NaN	NaN	NaN	NaN	NaN	NaN	NaN	NaN
93	0.92	76.53988	1616.86987	916.16327	67.22579	1627.31494	1048.14282	-53.0049	1579.3573	913.53003	-57.3982	1588.71277	1043.61987	-89.57194	1414.6759	973.75073	-114.21371	1101.79419	979.22449	34.00583	1344.03271	985.45367	84.95982	1180.93579	982.50354	-142.27058	1236.56458	1064.94348	-2.29541	1378.91003	826.57373	27.94695	1187.13098	754.12939	63.56723	1068.6554	745.38062	125.69044	955.15344	758.56775	173.48259	849.79779	800.57019	160.60107	846.70435	746.15668	202.16269	775.82336	763.50049	-27.37586	1366.44275	1141.08655	-40.72067	1142.82007	1210.01599	-33.3251	1029.84619	1222.0614	-32.33354	892.97479	1225.68311	-9.71294	793.73889	1195.13025	-45.92398	793.34656	1235.33936	-29.63563	720.51141	1228.95337	47.53075	942.3302	863.84613	50.24095	940.97675	1099.98975	-112.77374	966.2326	917.62073	-110.18848	965.33545	1065.49866	-35.17733	642.51471	829.98938	-52.17875	466.78552	869.08374	-129.44421	283.11935	870.81519	-169.84067	75.73165	915.01263	-210.7562	44.98026	953.71106	-18.86497	29.18313	931.14148	75.32885	651.80225	1146.54773	152.7775	490.13251	1117.04492	95.53704	303.90991	1119.48926	41.74517	94.73222	1074.52026	-6.22144	69.05509	1021.05811	170.6068	38.33142	1058.1449	NaN	NaN	NaN	NaN	NaN	NaN	NaN	NaN	NaN	NaN	NaN	NaN	NaN	NaN	NaN	NaN	NaN	NaN	NaN	NaN	NaN	NaN	NaN	NaN
94	0.93	88.27937	1615.7594	916.64813	78.92346	1625.91174	1048.69458	-41.27888	1578.2052	913.86224	-45.66448	1587.36719	1044.37366	-77.85101	1413.37585	974.14136	-102.66899	1100.47485	979.62341	45.82371	1342.69641	985.48389	96.65707	1179.58655	982.12305	-130.47879	1235.10876	1064.75146	9.60392	1377.91931	826.86383	42.58555	1187.37915	754.27332	80.60467	1069.50574	745.61566	146.25386	958.34387	759.8963	197.72348	855.41925	803.29871	185.0585	851.10162	748.95996	229.05008	781.91711	767.45416	-15.48049	1364.92798	1141.19397	-31.83389	1141.55127	1210.25964	-26.01001	1028.56067	1222.52686	-26.94068	891.64648	1226.13196	-5.29449	792.23169	1195.60742	-41.9747	792.25922	1235.8103	-26.8052	719.06232	1229.44812	58.17945	941.06677	863.29333	62.68018	939.62549	1099.427	-101.70224	964.87555	918.28516	-98.1021	963.83142	1066.06592	-27.6976	641.90674	830.25757	-46.99994	466.23666	869.44659	-126.5592	283.62085	871.37549	-169.56787	76.7358	915.38538	-210.73254	46.20532	954.52313	-18.65344	28.98132	931.32068	88.94518	651.48535	1146.45776	165.91586	489.49942	1116.48291	118.26333	300.65466	1118.88074	79.17486	88.18578	1073.53149	33.61599	59.67426	1019.42596	211.58873	39.34777	1058.27808	NaN	NaN	NaN	NaN	NaN	NaN	NaN	NaN	NaN	NaN	NaN	NaN	NaN	NaN	NaN	NaN	NaN	NaN	NaN	NaN	NaN	NaN	NaN	NaN
95	0.94	100.03899	1614.53796	917.06769	90.60653	1624.38916	1049.12817	-29.50028	1576.85339	914.15424	-33.96596	1585.70996	1044.66321	-66.06123	1411.89771	974.42291	-90.87324	1099.00134	980.14136	57.74378	1341.28186	985.48395	108.33222	1178.08704	981.70306	-118.68682	1233.57227	1064.85974	21.31738	1376.63843	827.17102	57.06378	1187.33264	754.36603	97.31568	1070.20313	745.85596	166.51944	961.40588	761.34808	221.4861	861.12109	806.01599	208.9799	855.61487	751.74695	255.46622	788.25549	771.30054	-3.49806	1363.27991	1141.3053	-22.66904	1140.38428	1210.44849	-18.45574	1027.23267	1223.0564	-21.18903	890.32373	1226.65576	-0.67603	790.59479	1196.35132	-37.5876	791.04919	1236.25891	-23.69329	717.56537	1229.5321	69.17283	939.79242	862.8606	75.21082	938.09814	1098.8894	-90.6043	963.35706	919.04016	-86.02818	962.11572	1066.71497	-19.72109	641.18677	830.47272	-41.40248	465.66656	869.85791	-123.47807	284.08038	871.87946	-168.94678	77.63141	916.02643	-210.56702	47.67184	955.13049	-18.54275	28.91622	931.33551	101.32655	650.25903	1145.98938	178.44673	488.37549	1115.97949	140.33501	297.70935	1118.43896	116.38078	82.75804	1072.73779	73.29444	51.95231	1017.98724	251.67459	40.90417	1058.72644	NaN	NaN	NaN	NaN	NaN	NaN	NaN	NaN	NaN	NaN	NaN	NaN	NaN	NaN	NaN	NaN	NaN	NaN	NaN	NaN	NaN	NaN	NaN	NaN
